<svg width="712" height="769" viewBox="0 0 712 769" fill="none" xmlns="http://www.w3.org/2000/svg">
<ellipse cx="356" cy="384.5" rx="356" ry="384.5" fill="white"/>
<g clip-path="url(#clip0_251_39)">
<path d="M173.739 512.419V608.915H163.982L163.038 596.451C162.094 601.077 160.048 604.503 156.901 606.731C153.753 608.958 149.924 610.071 145.412 610.071C142.317 610.071 139.721 609.6 137.623 608.658C135.524 607.63 133.767 606.174 132.351 604.289C130.934 602.405 129.833 599.749 129.046 596.323C128.259 592.897 127.708 589.042 127.393 584.759C127.131 580.476 127 575.208 127 568.954V512.419H137.544V568.44C137.544 569.725 137.544 571.439 137.544 573.58C137.544 575.807 137.544 577.349 137.544 578.206C137.544 581.29 137.57 583.731 137.623 585.53C137.675 587.243 137.859 588.956 138.173 590.669C138.488 592.383 138.882 593.625 139.354 594.396C139.878 595.166 140.639 595.895 141.636 596.58C142.632 597.18 143.786 597.608 145.098 597.865C146.409 598.036 148.088 598.122 150.134 598.122C152.442 598.122 154.409 597.822 156.035 597.222C157.609 596.708 158.868 596.023 159.812 595.167C160.756 594.31 161.464 593.153 161.936 591.697C162.409 590.241 162.723 588.828 162.881 587.457C163.038 586.001 163.117 584.245 163.117 582.189C163.117 581.504 163.117 580.347 163.117 578.72C163.064 577.178 163.038 575.979 163.038 575.122V512.419H173.739ZM237.16 474V608.786H227.403L226.459 596.708C224.256 605.617 218.512 610.071 209.227 610.071C206.761 610.071 204.558 609.814 202.617 609.3C200.676 608.786 198.997 607.887 197.581 606.602C196.165 605.317 194.958 603.99 193.962 602.619C192.912 601.248 192.073 599.235 191.444 596.58C190.762 594.01 190.237 591.654 189.87 589.513C189.503 587.371 189.214 584.416 189.004 580.647C188.847 576.792 188.742 573.452 188.69 570.625C188.69 567.798 188.69 563.943 188.69 559.061C188.69 554.349 188.716 550.238 188.768 546.726C188.873 543.299 189.057 539.873 189.319 536.446C189.581 533.106 189.949 530.279 190.421 527.966C190.84 525.653 191.444 523.383 192.23 521.156C192.965 519.014 193.857 517.301 194.906 516.016C195.955 514.646 197.214 513.447 198.683 512.419C200.152 511.391 201.856 510.705 203.797 510.363C205.686 509.934 207.837 509.72 210.25 509.72C214.866 509.72 218.459 510.705 221.029 512.676C223.6 514.731 225.436 517.944 226.537 522.312V475.413L237.16 474ZM226.537 586.429V535.161C226.537 530.107 225.567 526.595 223.626 524.625C221.685 522.741 218.039 521.798 212.689 521.798C208.545 521.798 205.476 522.312 203.483 523.34C201.804 524.111 200.676 526.51 200.099 530.536C199.522 534.562 199.234 539.958 199.234 546.726C199.234 556.662 199.338 570.539 199.548 588.357C199.758 592.211 200.729 594.781 202.46 596.066C204.191 597.436 207.6 598.122 212.689 598.122C217.725 598.122 221.239 597.265 223.233 595.552C225.226 593.924 226.328 590.883 226.537 586.429ZM297.119 545.055V608.786H288.699L286.968 595.038C285.919 601.034 283.978 605.06 281.145 607.116C278.313 609.086 274.195 610.071 268.792 610.071C265.225 610.071 262.287 609.515 259.979 608.401C257.671 607.287 255.835 605.36 254.471 602.619C253.107 599.963 252.163 596.666 251.638 592.725C251.166 588.87 250.93 583.859 250.93 577.692C250.93 574.951 251.219 572.509 251.796 570.368C252.373 568.141 253.186 566.256 254.235 564.714C255.232 563.258 256.595 561.973 258.327 560.86C260.005 559.746 261.762 558.847 263.598 558.161C265.434 557.562 267.638 557.048 270.208 556.619C272.831 556.277 275.375 556.02 277.841 555.848C280.306 555.763 283.191 555.72 286.496 555.72V529.636C286.496 526.638 285.63 524.582 283.899 523.469C282.168 522.355 279.1 521.798 274.693 521.798C271.651 521.798 269.343 521.884 267.769 522.055C266.248 522.312 265.067 522.998 264.228 524.111C263.441 525.311 262.995 526.467 262.89 527.581C262.733 528.694 262.654 530.75 262.654 533.748C262.602 534.862 262.576 535.761 262.576 536.446L254.314 535.932C254.261 534.99 254.235 533.577 254.235 531.692C254.235 527.838 254.576 524.54 255.258 521.798C255.992 519.057 256.91 516.916 258.012 515.374C259.113 513.832 260.635 512.633 262.576 511.776C264.516 510.834 266.431 510.277 268.32 510.106C270.208 509.849 272.569 509.72 275.401 509.72C279.703 509.72 283.217 510.277 285.945 511.391C288.621 512.419 290.824 514.346 292.555 517.173C294.233 520 295.414 523.597 296.096 527.966C296.778 532.335 297.119 538.031 297.119 545.055ZM286.496 581.161V566.128C279.414 566.128 273.985 566.599 270.208 567.541C266.379 568.398 263.835 569.597 262.576 571.139C261.317 572.681 260.687 574.865 260.687 577.692C260.687 577.777 260.687 577.949 260.687 578.206C260.687 587.114 261.133 592.64 262.025 594.781C262.917 597.008 265.671 598.122 270.287 598.122C274.169 598.122 277.342 597.351 279.808 595.809C282.221 594.267 283.899 592.297 284.844 589.898C285.788 587.586 286.339 584.673 286.496 581.161ZM347.084 512.419H357.864L339.294 604.161C338.822 606.388 338.324 609.043 337.799 612.127C337.275 615.297 336.829 617.824 336.461 619.708C336.147 621.678 335.727 623.82 335.203 626.133C334.678 628.446 334.127 630.287 333.55 631.658C332.921 633.028 332.16 634.356 331.268 635.641C330.376 636.84 329.301 637.74 328.042 638.339C326.783 638.853 325.314 639.11 323.636 639.11C319.387 639.11 315.531 638.468 312.069 637.183L313.643 623.82C314.325 623.906 315.243 624.12 316.397 624.462C317.551 624.805 318.547 625.062 319.387 625.233C320.226 625.405 321.013 625.49 321.747 625.49C324.055 625.49 325.786 624.205 326.941 621.636C328.147 619.066 328.75 614.269 328.75 607.245L306.64 512.419H317.341L328.278 561.374C330.219 570.282 332.029 578.677 333.707 586.558C334.914 579.448 336.671 569.683 338.979 557.262L347.084 512.419ZM410.898 582.06C410.898 587.714 410.505 592.34 409.718 595.937C408.984 599.535 407.751 602.362 406.02 604.418C404.289 606.559 402.164 608.058 399.646 608.915C397.181 609.686 394.033 610.071 390.204 610.071C388.001 610.071 386.217 610.071 384.853 610.071C383.489 609.986 381.942 609.814 380.211 609.557C378.427 609.3 377.037 608.958 376.04 608.53C374.991 608.016 373.863 607.33 372.657 606.474C371.45 605.617 370.506 604.546 369.824 603.261C369.142 601.891 368.487 600.306 367.857 598.507C367.28 596.708 366.86 594.567 366.598 592.083C366.336 589.599 366.205 586.772 366.205 583.602L374.545 580.005C374.86 586.686 375.227 590.926 375.647 592.725C376.329 595.124 377.693 596.623 379.739 597.222C381.26 597.822 384.486 598.122 389.417 598.122C392.407 598.122 394.637 597.865 396.105 597.351C397.574 596.923 398.545 596.109 399.017 594.91C400.485 592.939 401.22 586.343 401.22 575.122C401.22 573.409 400.984 571.953 400.512 570.753C400.092 569.554 399.567 568.655 398.938 568.055C398.361 567.455 397.522 566.941 396.42 566.513C395.318 566.085 394.322 565.785 393.43 565.614C392.591 565.442 391.437 565.271 389.968 565.1C388.551 564.843 387.424 564.629 386.584 564.457C383.961 563.943 381.811 563.472 380.132 563.044C378.506 562.616 376.854 561.973 375.175 561.117C373.496 560.26 372.159 559.146 371.162 557.776C370.218 556.491 369.352 554.863 368.565 552.893C367.778 550.837 367.228 548.353 366.913 545.441C366.598 542.614 366.441 539.187 366.441 535.161C366.441 530.964 366.703 527.409 367.228 524.497C367.752 521.584 368.539 519.143 369.588 517.173C370.637 515.203 372.08 513.704 373.916 512.676C375.699 511.562 377.719 510.791 379.975 510.363C382.23 509.934 384.984 509.72 388.237 509.72C390.283 509.72 391.961 509.763 393.273 509.849C394.584 509.934 396.027 510.149 397.6 510.491C399.174 510.748 400.433 511.177 401.377 511.776C402.374 512.376 403.344 513.19 404.289 514.218C405.285 515.331 406.072 516.659 406.649 518.201C407.174 519.743 407.593 521.627 407.908 523.854C408.275 526.081 408.459 528.608 408.459 531.435L401.22 535.033C401.063 532.806 400.931 531.007 400.826 529.636C400.722 528.351 400.433 527.152 399.961 526.039C399.541 524.925 399.095 524.154 398.623 523.726C398.151 523.212 397.364 522.784 396.263 522.441C395.109 522.098 393.981 521.884 392.879 521.798C391.725 521.798 390.073 521.798 387.922 521.798C383.306 521.798 380.185 522.527 378.558 523.983C376.932 525.439 376.119 527.88 376.119 531.307V540.301C376.119 544.156 376.827 546.597 378.244 547.625C379.66 548.653 383.463 549.809 389.653 551.094C390.283 551.266 390.755 551.394 391.069 551.48C393.535 551.908 395.502 552.336 396.971 552.765C398.44 553.193 399.961 553.707 401.535 554.307C403.161 554.992 404.394 555.806 405.233 556.748C406.072 557.69 406.911 558.847 407.751 560.217C408.59 561.588 409.193 563.301 409.561 565.357C409.98 567.413 410.295 569.811 410.505 572.552C410.767 575.208 410.898 578.377 410.898 582.06ZM467.473 545.055V608.786H459.133L457.402 595.038C456.3 601.034 454.359 605.06 451.579 607.116C448.746 609.086 444.628 610.071 439.225 610.071C435.606 610.071 432.668 609.515 430.412 608.401C428.104 607.287 426.268 605.36 424.904 602.619C423.54 599.963 422.596 596.666 422.072 592.725C421.547 588.87 421.285 583.859 421.285 577.692C421.285 574.951 421.573 572.509 422.15 570.368C422.78 568.141 423.593 566.256 424.59 564.714C425.639 563.258 427.003 561.973 428.681 560.86C430.412 559.746 432.17 558.847 433.953 558.161C435.789 557.562 438.019 557.048 440.641 556.619C443.212 556.277 445.756 556.02 448.274 555.848C450.739 555.763 453.625 555.72 456.929 555.72V529.636C456.929 526.638 456.064 524.582 454.333 523.469C452.602 522.355 449.533 521.798 445.127 521.798C442.032 521.798 439.723 521.884 438.202 522.055C436.628 522.312 435.448 522.998 434.661 524.111C433.874 525.311 433.402 526.467 433.245 527.581C433.14 528.694 433.061 530.75 433.009 533.748C433.009 534.862 433.009 535.761 433.009 536.446L424.747 535.932C424.694 534.99 424.668 533.577 424.668 531.692C424.668 527.838 425.009 524.54 425.691 521.798C426.373 519.057 427.265 516.916 428.366 515.374C429.521 513.832 431.068 512.633 433.009 511.776C434.897 510.834 436.812 510.277 438.753 510.106C440.641 509.849 443.002 509.72 445.835 509.72C450.136 509.72 453.625 510.277 456.3 511.391C458.975 512.419 461.178 514.346 462.91 517.173C464.641 520 465.847 523.597 466.529 527.966C467.159 532.335 467.473 538.031 467.473 545.055ZM456.929 581.161V566.128C449.848 566.128 444.418 566.599 440.641 567.541C436.812 568.398 434.268 569.597 433.009 571.139C431.75 572.681 431.12 574.865 431.12 577.692C431.12 577.777 431.12 577.949 431.12 578.206C431.12 587.114 431.566 592.64 432.458 594.781C433.35 597.008 436.078 598.122 440.641 598.122C444.576 598.122 447.749 597.351 450.162 595.809C452.628 594.267 454.333 592.297 455.277 589.898C456.221 587.586 456.772 584.673 456.929 581.161ZM530.973 553.536V608.786H520.35V550.323C520.35 548.182 520.376 545.484 520.429 542.228C520.481 539.059 520.508 536.96 520.508 535.932C520.508 532.934 520.376 530.664 520.114 529.122C519.852 527.495 519.249 526.081 518.304 524.882C517.308 523.683 515.944 522.869 514.213 522.441C512.429 522.013 510.016 521.798 506.974 521.798C505.557 521.798 504.22 521.927 502.961 522.184C501.649 522.441 500.416 522.912 499.262 523.597C498.161 524.197 497.243 525.054 496.508 526.167C495.774 527.281 495.381 528.566 495.328 530.022C494.803 540.644 494.541 550.152 494.541 558.547V608.786H483.919V478.24L494.541 476.827V519.743C497.112 513.061 502.462 509.72 510.593 509.72C512.691 509.806 514.606 510.02 516.337 510.363C518.016 510.705 519.511 511.177 520.822 511.776C522.186 512.29 523.366 513.018 524.363 513.961C525.36 514.903 526.225 515.845 526.96 516.787C527.642 517.815 528.245 519.057 528.77 520.514C529.294 522.055 529.688 523.512 529.95 524.882C530.212 526.338 530.448 528.052 530.658 530.022C530.815 532.078 530.92 534.005 530.973 535.804C531.025 537.603 531.051 539.787 531.051 542.357C531.051 543.471 531.025 545.269 530.973 547.754C530.973 550.238 530.973 552.165 530.973 553.536ZM594 512.419V608.915H584.164L583.22 596.451C582.276 601.077 580.23 604.503 577.083 606.731C573.935 608.958 570.106 610.071 565.594 610.071C562.499 610.071 559.903 609.6 557.805 608.658C555.706 607.63 553.949 606.174 552.533 604.289C551.116 602.405 550.015 599.749 549.228 596.323C548.441 592.897 547.916 589.042 547.654 584.759C547.339 580.476 547.182 575.208 547.182 568.954V512.419H557.726V568.44C557.726 569.725 557.726 571.439 557.726 573.58C557.726 575.807 557.726 577.349 557.726 578.206C557.726 581.29 557.752 583.731 557.805 585.53C557.857 587.243 558.041 588.956 558.355 590.669C558.67 592.383 559.09 593.625 559.614 594.396C560.086 595.166 560.821 595.895 561.818 596.58C562.867 597.18 564.021 597.608 565.28 597.865C566.591 598.036 568.27 598.122 570.316 598.122C572.624 598.122 574.591 597.822 576.217 597.222C577.843 596.708 579.102 596.023 579.994 595.167C580.938 594.31 581.646 593.153 582.118 591.697C582.643 590.241 582.958 588.828 583.063 587.457C583.22 586.001 583.299 584.245 583.299 582.189C583.299 581.504 583.299 580.347 583.299 578.72C583.246 577.178 583.22 575.979 583.22 575.122V512.419H594Z" fill="black"/>
<path d="M353.662 131C328.923 131.272 312.213 138.119 302.148 152.227C292.54 165.697 290.193 183.002 289.67 202.415C280.657 205.695 278.849 214.464 278.897 223.862C279.786 235.056 288.109 250.424 296.1 251.081C299.012 261.804 302.753 272.751 307.347 282.975C311.218 291.591 315.664 299.6 320.863 306.492C319.729 309.168 317.016 318.646 315.758 323.692C305.899 328.543 294.149 333.986 282.865 339.367C269.234 345.868 257.905 351.096 251.2 356.243C241.567 367.35 235.76 379.463 235.228 391.296C233.051 407.313 231.094 423.854 229.083 440.067C228.327 445.985 232.872 452.043 238.065 452.043H467.938C473.131 452.043 477.673 445.985 476.917 440.067L470.869 391.296C468.703 376.877 463.353 361.404 453.854 355.587C447.826 352.118 416.624 334.876 390.145 323.256C388.394 316.936 386.271 312.651 384.097 306.816C389.404 299.851 393.962 291.731 397.897 282.975C402.494 272.751 406.232 261.804 409.147 251.077C419.448 249.413 427.033 233.123 427.103 223.858C428.615 211.624 425.591 204.658 416.424 202.415C416.757 185.748 414.7 170.359 408.388 157.563C395.344 138.468 377.195 131.499 353.662 131ZM354.228 151.903C368.2 151.512 385.917 154.83 392.604 167.906C394.585 171.926 395.997 176.961 396.953 182.712C388.908 177.642 378.272 174.275 370.959 172.153C367.181 170.174 364.353 171.357 361.22 173.35C349.21 184.419 343.398 185.87 336.838 185.979C330.408 186.083 321.919 183.644 309.425 184.562C310.741 176.466 312.897 170.052 316.139 165.509C329.38 153.41 339.835 151.924 354.228 151.903ZM368.594 192.836C376.064 195.606 383.96 197.473 390.336 202.851C392.646 209.143 393.511 217.347 394.116 223.209C394.111 225.213 394.604 227.177 395.535 228.869C392.822 242.943 387.992 259.473 381.734 273.397C377.361 283.132 372.229 291.57 367.084 297.126C361.937 302.692 357.246 305.187 352.622 305.187C347.998 305.187 343.307 302.692 338.159 297.126C333.015 291.57 327.883 283.132 323.509 273.397C317.452 259.913 312.827 244.028 310.087 230.286C311.599 228.374 312.458 225.795 312.449 223.209C312.812 216.97 313.269 210.996 314.53 205.573C322.145 205.681 328.672 207.017 337.025 206.878C346.068 206.728 356.436 202.935 368.597 192.836H368.594ZM370.581 320.206L371.902 325.65C365.599 337.061 358.807 349.03 353.094 359.185L334.095 325.65L335.326 320.646C340.552 324.017 346.383 326.089 352.622 326.089C359.124 326.089 365.182 323.835 370.581 320.206ZM322.372 343.07L343.074 379.868L338.537 390.099C337.839 394.133 338.265 396.454 340.428 399.029L339.862 403.272L318.692 344.811C319.862 344.239 321.229 343.632 322.372 343.07ZM383.812 343.07C384.943 343.569 386.159 344.075 387.311 344.595L366.141 403.164L365.475 398.917C368.028 396.346 367.777 392.811 367.462 390.099L363.017 379.976C370.039 367.385 377.382 354.481 383.812 343.07ZM404.039 352.541C407.033 354.006 409.755 355.437 412.64 356.896L396.856 383.895C394.512 387.894 395.011 393.781 397.99 397.176L403.948 403.925L382.206 431.144H375.592L404.039 352.541ZM301.958 352.869L330.317 431.144H323.797L302.058 403.925L307.916 397.18C310.895 393.784 311.397 387.897 309.05 383.898L293.359 357.007C296.296 355.608 299.033 354.268 301.958 352.869ZM276.438 365.389L289.86 388.361L283.055 396.199C279.771 399.961 279.638 406.748 282.771 410.677L299.03 431.144H248.554C249.89 418.424 252.092 405.443 253.187 392.825C253.187 382.869 258.316 375.991 261.22 373.663C266.34 370.543 271.82 367.731 276.438 365.389ZM429.371 365.497C437.244 369.664 443.767 373.192 445.724 374.316C447.439 375.303 452.813 382.377 452.813 392.825C454.165 405.485 455.88 418.41 457.443 431.144H406.97L423.229 410.677C426.335 406.724 426.159 399.929 422.851 396.195L416.046 388.361L429.371 365.497ZM352.622 388.794C352.873 388.843 353.124 388.878 353.378 388.902L354.7 391.736C353.711 392.913 353.109 394.452 353 396.087C352.869 394.49 352.268 392.993 351.297 391.844L352.622 388.794ZM353 397.291C354.5 407.25 355.909 417.328 357.346 427.337L356.024 431.144H349.882L348.651 427.549C350.118 417.486 351.479 407.313 353 397.291Z" fill="black"/>
</g>
<defs>
<clipPath id="clip0_251_39">
<rect width="491" height="508" fill="white" transform="translate(115 131)"/>
</clipPath>
</defs>
</svg>
